<svg width="275" height="38" viewBox="0 0 275 38" fill="none" xmlns="http://www.w3.org/2000/svg">
<path d="M20.273 29.4991L26.3795 29.8024C26.2171 31.0024 25.7896 32.1513 25.1282 33.1657C24.4667 34.1801 23.5878 35.0346 22.5553 35.6673C20.4272 37.0003 17.5145 37.6651 13.817 37.6617C9.42387 37.6617 6.01767 36.6987 3.59837 34.7729C1.17907 32.8471 -0.0203007 30.1622 0.000259895 26.7183C0.000259895 23.2744 1.17907 20.5895 3.53668 18.6637C5.8943 16.7378 9.19942 15.7749 13.452 15.7749C16.9371 15.7749 19.7676 16.4448 21.9436 17.7847C22.9549 18.3623 23.8326 19.1473 24.5192 20.0881C25.2057 21.0289 25.6856 22.1042 25.9272 23.2435L19.8772 23.6342C19.4217 22.6932 18.6123 21.9707 17.6258 21.6244C16.3022 21.0915 14.8837 20.8344 13.4572 20.8688C11.1612 20.8688 9.39303 21.3982 8.15254 22.4571C7.54126 22.9778 7.05617 23.6305 6.73385 24.366C6.41152 25.1014 6.26038 25.9005 6.29181 26.7029C6.25854 27.5163 6.41762 28.3261 6.75612 29.0665C7.09461 29.8069 7.60298 30.457 8.23992 30.9641C9.53867 32.0126 11.408 32.5369 13.8478 32.5369C15.3197 32.5947 16.7846 32.3059 18.1244 31.694C19.0912 31.2586 19.8584 30.4749 20.273 29.4991Z" fill="white"/>
<path d="M32.4093 34.7626C29.9318 32.8231 28.693 30.1416 28.693 26.7183C28.693 23.295 29.9318 20.6152 32.4093 18.6791C34.8869 16.7464 38.3325 15.7783 42.7462 15.7749C47.1598 15.7715 50.6072 16.7395 53.0882 18.6791C55.5657 20.6118 56.8045 23.2915 56.8045 26.7183C56.8045 30.1451 55.5657 32.8265 53.0882 34.7626C50.6037 36.6953 47.1564 37.6617 42.7462 37.6617C38.3359 37.6617 34.8903 36.6953 32.4093 34.7626ZM37.0355 22.4725C36.3989 22.982 35.885 23.6282 35.5319 24.3631C35.1788 25.098 34.9955 25.9029 34.9955 26.7183C34.9955 27.5337 35.1788 28.3386 35.5319 29.0735C35.885 29.8084 36.3989 30.4546 37.0355 30.9641C38.4062 32.0229 40.3149 32.5524 42.7616 32.5524C45.2083 32.5524 47.1187 32.0229 48.4929 30.9641C49.1294 30.4546 49.6433 29.8084 49.9964 29.0735C50.3495 28.3386 50.5329 27.5337 50.5329 26.7183C50.5329 25.9029 50.3495 25.098 49.9964 24.3631C49.6433 23.6282 49.1294 22.982 48.4929 22.4725C47.1222 21.4137 45.2117 20.8842 42.7616 20.8842C40.3115 20.8842 38.3976 21.4137 37.02 22.4725H37.0355Z" fill="white"/>
<path d="M79.7137 16.1399H85.7277V37.3019H75.0567L66.3493 19.7072V37.3019H60.3353V16.1399H71.0063L79.7137 33.7346V16.1399Z" fill="white"/>
<path d="M109.275 16.1399H115.685L106.828 37.3019H97.3755L88.6372 16.1399H95.2166L102.171 34.2486L109.275 16.1399Z" fill="white"/>
<path d="M118.583 37.3019V16.1399H140.136V21.0385H124.87V24.2408H136.785V28.8206H124.87V32.4188H140.712V37.3019H118.583Z" fill="white"/>
<path d="M161.442 37.3019L154.523 29.8024H150.591V37.3019H144.305V16.1399H159.36C161.899 16.1399 164 16.7242 165.662 17.8927C167.324 19.0612 168.155 20.8191 168.155 23.1665C168.155 26.9359 165.989 29.1034 161.658 29.6688L169.394 37.3019H161.442ZM150.591 21.1567V25.0889H159.057C159.774 25.124 160.487 24.9566 161.113 24.6057C161.357 24.4565 161.557 24.2439 161.69 23.9905C161.823 23.737 161.885 23.4523 161.869 23.1665C161.876 22.8746 161.809 22.5856 161.674 22.3266C161.54 22.0677 161.341 21.8473 161.098 21.6861C160.486 21.2931 159.767 21.1024 159.042 21.1413L150.591 21.1567Z" fill="white"/>
<path d="M170.519 21.28V16.1399H194.642V21.28H185.724V37.3019H179.432V21.28H170.519Z" fill="white"/>
<path d="M219.974 16.1399H230.974L230.948 37.3019H224.929V19.5684L218.684 37.3019H210.177L203.921 19.5684V37.3019H197.907V16.1399H208.918L214.51 33.6164L219.974 16.1399Z" fill="white"/>
<path d="M234.699 37.3019V16.1399H256.257V21.0385H240.991V24.2408H252.9V28.8206H240.991V32.4188H256.827V37.3019H234.699Z" fill="white"/>
<path d="M252.905 0H274.062V21.1569L252.905 0Z" fill="white"/>
</svg>
