<svg width="16" height="16" viewBox="0 0 16 16" fill="none" xmlns="http://www.w3.org/2000/svg">
<path d="M5.56433 11.0825L4.30433 9.82252C4.13462 9.65492 3.91991 9.54019 3.68626 9.49226C3.45261 9.44434 3.21006 9.46527 2.98808 9.55252L1.45246 10.1656C1.22813 10.2567 1.03577 10.4121 0.899635 10.6123C0.763497 10.8125 0.68967 11.0486 0.687455 11.2906V14.1031C0.688762 14.2678 0.723381 14.4306 0.78923 14.5815C0.85508 14.7325 0.950797 14.8685 1.07062 14.9815C1.19044 15.0945 1.33189 15.1821 1.48645 15.239C1.641 15.2959 1.80547 15.3209 1.96996 15.3125C12.7306 14.6431 14.9018 5.53065 15.3125 2.04315C15.3315 1.87189 15.3141 1.69853 15.2614 1.53448C15.2086 1.37044 15.1217 1.21942 15.0064 1.09136C14.8911 0.963305 14.75 0.861113 14.5924 0.791509C14.4347 0.721905 14.2641 0.686465 14.0918 0.687523H11.375C11.1325 0.688241 10.8958 0.761473 10.6953 0.897802C10.4949 1.03413 10.3397 1.22732 10.25 1.45252L9.63683 2.98815C9.54669 3.20925 9.52369 3.45201 9.57071 3.6861C9.61773 3.9202 9.73268 4.13525 9.90121 4.3044L11.1612 5.5644C11.1612 5.5644 10.4356 10.475 5.56433 11.0825Z" fill="white"/>
</svg>
